<svg xmlns="http://www.w3.org/2000/svg" id="canvas" viewBox="248.635 299.368 1253.943 153.581"><path d="M 271.16,302.98 C 270.21 303.88, 269.58 305.14, 269.12 307.77 C 268.66 310.40, 268.91 312.05, 268.86 316.13 C 268.82 320.22, 268.84 322.83, 268.90 328.20 C 268.96 333.56, 269.12 336.82, 269.16 342.96 C 269.20 349.10, 269.09 352.30, 269.09 358.88 C 269.08 365.47, 269.32 369.42, 269.14 375.87 C 268.96 382.32, 268.47 385.29, 268.18 391.14 C 267.89 396.98, 268.04 399.93, 267.68 405.10 C 267.32 410.27, 266.88 412.70, 266.37 416.98 C 265.85 421.25, 265.68 423.13, 265.12 426.46 C 264.56 429.78, 263.95 431.20, 263.55 433.62 C 263.16 436.04, 263.18 436.97, 263.15 438.56 C 263.12 440.14, 263.11 440.63, 263.39 441.55 C 263.67 442.47, 264.03 442.89, 264.56 443.15 C 265.08 443.41, 265.61 443.13, 266.03 442.85 C 266.45 442.58, 266.26 442.48, 266.66 441.79 C 267.06 441.10, 267.53 440.85, 268.03 439.40 C 268.52 437.94, 268.73 436.98, 269.12 434.51 C 269.51 432.03, 269.72 430.47, 269.97 427.04 C 270.21 423.60, 270.13 421.67, 270.37 417.32 C 270.60 412.97, 270.93 410.49, 271.12 405.28 C 271.32 400.07, 271.12 397.14, 271.33 391.27 C 271.54 385.41, 272.01 382.43, 272.18 375.95 C 272.36 369.48, 272.13 365.50, 272.21 358.90 C 272.30 352.31, 272.43 349.12, 272.61 343.00 C 272.78 336.88, 272.80 333.61, 273.09 328.29 C 273.39 322.97, 273.71 320.42, 274.08 316.40 C 274.46 312.39, 275.01 310.87, 274.97 308.24 C 274.93 305.60, 274.64 304.29, 273.87 303.24 C 273.11 302.19, 272.11 302.07, 271.16 302.98" style="stroke: black; fill: black;"/><path d="M 302.70,316.32 C 302.18 317.38, 302.41 318.36, 302.59 320.75 C 302.78 323.15, 303.59 324.54, 303.63 328.29 C 303.68 332.04, 303.43 334.46, 302.82 339.50 C 302.21 344.55, 301.62 347.64, 300.59 353.49 C 299.55 359.34, 298.72 362.57, 297.66 368.76 C 296.59 374.96, 295.99 378.18, 295.28 384.46 C 294.58 390.74, 294.56 394.16, 294.12 400.17 C 293.67 406.19, 293.45 409.55, 293.05 414.52 C 292.64 419.50, 292.23 421.66, 292.09 425.05 C 291.95 428.44, 291.88 430.14, 292.33 431.47 C 292.78 432.79, 293.61 432.91, 294.36 431.70 C 295.10 430.49, 295.57 428.80, 296.05 425.42 C 296.54 422.03, 296.51 419.78, 296.77 414.77 C 297.03 409.76, 297.04 406.38, 297.36 400.38 C 297.68 394.39, 297.67 391.01, 298.36 384.80 C 299.06 378.59, 299.68 375.46, 300.82 369.33 C 301.97 363.21, 302.85 360.01, 304.11 354.18 C 305.36 348.35, 306.11 345.33, 307.10 340.18 C 308.09 335.03, 308.80 332.54, 309.06 328.43 C 309.31 324.33, 309.14 322.25, 308.37 319.65 C 307.60 317.05, 306.34 316.10, 305.20 315.44 C 304.07 314.77, 303.23 315.26, 302.70 316.32" style="stroke: black; fill: black;"/><path d="M 251.90,388.66 C 252.37 389.51, 252.65 390.06, 254.60 390.67 C 256.56 391.29, 257.94 391.64, 261.67 391.73 C 265.41 391.81, 268.64 391.42, 273.27 391.10 C 277.91 390.78, 280.94 390.66, 284.84 390.14 C 288.75 389.63, 291.24 389.37, 292.80 388.53 C 294.36 387.69, 294.30 386.60, 292.65 385.94 C 291.01 385.27, 288.51 385.32, 284.59 385.21 C 280.68 385.09, 277.65 385.37, 273.09 385.35 C 268.52 385.34, 265.36 385.15, 261.76 385.13 C 258.17 385.12, 257.01 385.03, 255.10 385.28 C 253.20 385.54, 252.89 385.75, 252.25 386.42 C 251.61 387.10, 251.43 387.81, 251.90 388.66" style="stroke: black; fill: black;"/><path d="M 325.95,419.60 C 326.47 420.45, 327.02 420.83, 328.51 421.27 C 330.01 421.71, 331.08 421.92, 333.41 421.80 C 335.74 421.69, 337.31 421.63, 340.17 420.70 C 343.04 419.77, 344.53 418.73, 347.73 417.17 C 350.94 415.60, 352.87 414.73, 356.19 412.88 C 359.51 411.04, 361.22 409.96, 364.33 407.93 C 367.44 405.89, 369.08 404.90, 371.73 402.71 C 374.37 400.52, 375.77 399.46, 377.55 396.99 C 379.34 394.51, 379.94 393.05, 380.64 390.33 C 381.34 387.60, 381.62 386.03, 381.05 383.35 C 380.48 380.68, 379.68 378.98, 377.77 376.97 C 375.86 374.96, 374.34 374.09, 371.52 373.31 C 368.69 372.52, 366.97 372.44, 363.62 373.05 C 360.28 373.67, 358.31 374.42, 354.77 376.38 C 351.23 378.35, 349.29 379.76, 345.91 382.89 C 342.52 386.01, 340.82 388.09, 337.85 391.99 C 334.88 395.89, 333.34 398.12, 331.06 402.40 C 328.78 406.67, 327.62 408.91, 326.46 413.35 C 325.31 417.79, 324.89 420.35, 325.29 424.60 C 325.69 428.85, 326.23 431.14, 328.46 434.60 C 330.69 438.06, 332.69 439.85, 336.45 441.88 C 340.21 443.91, 343.01 444.28, 347.24 444.75 C 351.47 445.22, 354.13 444.94, 357.59 444.24 C 361.06 443.53, 363.32 442.33, 364.59 441.20 C 365.86 440.08, 365.46 439.02, 363.92 438.62 C 362.39 438.22, 360.14 438.98, 356.90 439.20 C 353.66 439.42, 351.39 440.01, 347.74 439.71 C 344.08 439.41, 341.71 439.21, 338.62 437.69 C 335.54 436.17, 334.08 434.80, 332.29 432.10 C 330.50 429.40, 330.03 427.72, 329.68 424.18 C 329.34 420.64, 329.57 418.37, 330.58 414.41 C 331.59 410.45, 332.61 408.32, 334.74 404.37 C 336.88 400.42, 338.41 398.24, 341.27 394.66 C 344.13 391.07, 345.85 389.13, 349.05 386.45 C 352.24 383.77, 354.11 382.68, 357.24 381.27 C 360.37 379.85, 362.15 379.75, 364.70 379.36 C 367.25 378.97, 368.27 378.96, 370.01 379.32 C 371.76 379.67, 372.38 380.11, 373.44 381.16 C 374.49 382.21, 374.95 383.06, 375.27 384.58 C 375.59 386.11, 375.57 387.04, 375.04 388.80 C 374.51 390.57, 374.04 391.50, 372.64 393.41 C 371.23 395.32, 370.29 396.36, 368.02 398.34 C 365.75 400.32, 364.20 401.41, 361.30 403.32 C 358.41 405.23, 356.73 406.27, 353.53 407.87 C 350.33 409.48, 348.37 410.28, 345.29 411.36 C 342.21 412.43, 340.69 412.70, 338.13 413.26 C 335.57 413.82, 334.46 413.75, 332.48 414.16 C 330.50 414.57, 329.55 414.73, 328.23 415.30 C 326.92 415.87, 326.38 416.15, 325.92 417.01 C 325.46 417.87, 325.43 418.75, 325.95 419.60" style="stroke: black; fill: black;"/><path d="M 421.08,323.45 C 420.20 324.12, 419.76 324.79, 419.19 327.03 C 418.62 329.26, 418.61 330.68, 418.23 334.62 C 417.86 338.57, 417.96 341.16, 417.32 346.75 C 416.67 352.34, 416.08 355.90, 414.99 362.58 C 413.90 369.27, 413.27 373.16, 411.87 380.18 C 410.47 387.20, 409.54 390.85, 407.99 397.67 C 406.44 404.49, 405.30 408.17, 404.12 414.28 C 402.95 420.40, 402.69 423.45, 402.12 428.24 C 401.55 433.03, 401.19 435.20, 401.28 438.22 C 401.37 441.24, 402.01 441.98, 402.57 443.35 C 403.13 444.71, 403.56 444.76, 404.07 445.03 C 404.57 445.30, 404.81 445.11, 405.10 444.70 C 405.38 444.29, 405.27 444.28, 405.49 442.98 C 405.72 441.68, 406.15 441.08, 406.21 438.19 C 406.27 435.31, 405.61 433.21, 405.79 428.53 C 405.98 423.86, 406.14 420.87, 407.14 414.82 C 408.13 408.77, 409.24 405.10, 410.75 398.29 C 412.26 391.47, 413.21 387.79, 414.70 380.76 C 416.20 373.74, 416.88 369.84, 418.21 363.16 C 419.53 356.48, 420.26 352.93, 421.33 347.37 C 422.40 341.80, 422.88 339.27, 423.56 335.34 C 424.25 331.41, 424.74 330.05, 424.75 327.72 C 424.75 325.39, 424.31 324.54, 423.57 323.68 C 422.84 322.83, 421.96 322.78, 421.08 323.45" style="stroke: black; fill: black;"/><path d="M 453.31,316.76 C 452.83 317.22, 453.06 316.83, 452.67 317.97 C 452.29 319.12, 451.66 319.68, 451.37 322.48 C 451.09 325.29, 451.73 327.16, 451.26 332.01 C 450.79 336.85, 450.06 340.21, 449.02 346.71 C 447.99 353.21, 447.25 357.24, 446.07 364.52 C 444.90 371.79, 444.07 375.94, 443.15 383.10 C 442.23 390.26, 441.86 394.07, 441.47 400.32 C 441.08 406.57, 440.93 409.49, 441.21 414.34 C 441.50 419.19, 441.85 421.28, 442.88 424.57 C 443.90 427.85, 445.00 429.00, 446.34 430.77 C 447.69 432.54, 448.66 433.11, 449.62 433.41 C 450.58 433.72, 451.11 433.23, 451.16 432.29 C 451.21 431.34, 450.66 430.51, 449.87 428.68 C 449.08 426.85, 448.24 426.07, 447.21 423.14 C 446.18 420.21, 445.28 418.56, 444.74 414.03 C 444.19 409.50, 444.24 406.59, 444.49 400.48 C 444.73 394.36, 445.06 390.55, 445.96 383.46 C 446.87 376.37, 447.71 372.24, 449.01 365.02 C 450.32 357.80, 451.11 353.80, 452.49 347.36 C 453.87 340.92, 454.75 337.64, 455.93 332.81 C 457.11 327.97, 458.08 326.27, 458.40 323.20 C 458.71 320.13, 458.19 318.95, 457.52 317.45 C 456.85 315.95, 455.88 315.82, 455.04 315.68 C 454.19 315.55, 453.78 316.30, 453.31 316.76" style="stroke: black; fill: black;"/><path d="M 540.29,377.58 C 540.24 376.54, 539.86 375.69, 538.76 374.79 C 537.66 373.88, 536.61 373.57, 534.78 373.05 C 532.94 372.53, 532.01 372.26, 529.61 372.20 C 527.21 372.13, 525.55 372.12, 522.76 372.70 C 519.96 373.29, 518.65 373.71, 515.63 375.13 C 512.60 376.55, 510.90 377.55, 507.64 379.80 C 504.39 382.06, 502.46 383.42, 499.35 386.41 C 496.23 389.40, 494.65 391.29, 492.06 394.77 C 489.46 398.25, 488.14 400.16, 486.35 403.83 C 484.56 407.49, 483.75 409.50, 483.12 413.11 C 482.48 416.72, 482.37 418.68, 483.18 421.88 C 483.99 425.09, 484.95 426.74, 487.16 429.14 C 489.37 431.54, 491.08 432.73, 494.21 433.88 C 497.35 435.03, 499.40 435.15, 502.84 434.88 C 506.27 434.61, 507.96 434.01, 511.38 432.54 C 514.80 431.07, 516.61 430.03, 519.95 427.53 C 523.28 425.03, 525.13 423.46, 528.05 420.05 C 530.97 416.63, 532.24 414.38, 534.56 410.47 C 536.89 406.55, 537.94 404.33, 539.66 400.48 C 541.37 396.62, 542.26 394.71, 543.15 391.19 C 544.03 387.67, 544.28 385.74, 544.09 382.88 C 543.89 380.03, 543.11 378.75, 542.18 376.91 C 541.26 375.06, 540.55 374.46, 539.46 373.67 C 538.38 372.88, 537.51 372.79, 536.75 372.97 C 536.00 373.16, 535.74 373.94, 535.69 374.59 C 535.64 375.24, 536.18 375.38, 536.51 376.22 C 536.83 377.07, 536.96 377.41, 537.31 378.82 C 537.67 380.23, 538.14 381.02, 538.28 383.26 C 538.42 385.50, 538.60 386.96, 538.01 390.03 C 537.41 393.11, 536.78 395.00, 535.31 398.62 C 533.83 402.24, 532.79 404.47, 530.63 408.14 C 528.47 411.80, 527.23 413.89, 524.50 416.95 C 521.77 420.00, 520.03 421.33, 516.99 423.42 C 513.95 425.51, 512.21 426.31, 509.30 427.39 C 506.40 428.47, 505.06 428.71, 502.46 428.81 C 499.87 428.91, 498.55 428.65, 496.34 427.90 C 494.14 427.14, 492.97 426.53, 491.44 425.04 C 489.92 423.54, 489.35 422.63, 488.73 420.42 C 488.11 418.20, 487.92 416.84, 488.33 413.95 C 488.74 411.05, 489.27 409.20, 490.78 405.94 C 492.29 402.68, 493.49 400.82, 495.89 397.65 C 498.29 394.49, 499.83 392.74, 502.78 390.10 C 505.73 387.46, 507.57 386.26, 510.63 384.46 C 513.70 382.65, 515.44 382.03, 518.10 381.08 C 520.76 380.14, 521.70 379.99, 523.93 379.73 C 526.17 379.47, 527.42 379.69, 529.29 379.80 C 531.16 379.91, 531.82 380.13, 533.28 380.29 C 534.73 380.45, 535.43 380.67, 536.57 380.61 C 537.71 380.54, 538.23 380.57, 538.98 379.97 C 539.72 379.36, 540.33 378.62, 540.29 377.58" style="stroke: black; fill: black;"/><path d="M 680.55,308.03 C 679.77 308.72, 679.50 309.35, 679.13 311.38 C 678.76 313.41, 678.71 314.67, 678.71 318.17 C 678.71 321.67, 679.17 323.97, 679.12 328.86 C 679.07 333.76, 679.03 336.65, 678.45 342.63 C 677.87 348.61, 677.16 352.23, 676.22 358.78 C 675.28 365.34, 674.61 368.75, 673.76 375.41 C 672.91 382.07, 672.62 385.89, 671.97 392.08 C 671.32 398.27, 670.99 401.16, 670.50 406.36 C 670.02 411.55, 669.77 414.19, 669.54 418.06 C 669.30 421.94, 669.13 423.36, 669.32 425.73 C 669.50 428.09, 669.89 429.06, 670.47 429.90 C 671.06 430.73, 671.64 430.72, 672.24 429.91 C 672.84 429.10, 673.17 428.18, 673.48 425.84 C 673.80 423.51, 673.73 422.10, 673.83 418.25 C 673.93 414.40, 673.74 411.78, 673.99 406.60 C 674.23 401.43, 674.50 398.54, 675.05 392.38 C 675.60 386.22, 675.88 382.41, 676.74 375.79 C 677.60 369.16, 678.27 365.80, 679.33 359.26 C 680.39 352.71, 681.18 349.09, 682.05 343.06 C 682.92 337.04, 683.12 334.09, 683.68 329.14 C 684.23 324.20, 684.60 321.91, 684.82 318.36 C 685.04 314.81, 685.12 313.48, 684.76 311.40 C 684.41 309.31, 683.89 308.60, 683.05 307.93 C 682.21 307.25, 681.33 307.34, 680.55 308.03" style="stroke: black; fill: black;"/><path d="M 733.76,323.07 C 732.54 323.91, 731.64 325.39, 730.48 327.96 C 729.31 330.52, 728.60 332.92, 727.95 335.89 C 727.29 338.85, 727.21 340.60, 727.20 342.79 C 727.18 344.99, 727.47 345.45, 727.88 346.85 C 728.29 348.26, 728.29 348.62, 729.23 349.81 C 730.18 351.00, 730.91 352.53, 732.60 352.79 C 734.28 353.06, 736.76 352.56, 737.66 351.14 C 738.55 349.72, 738.14 346.90, 737.08 345.68 C 736.01 344.47, 733.57 344.70, 732.33 345.07 C 731.09 345.44, 731.00 347.11, 730.88 347.53 C 730.76 347.95, 731.15 347.88, 731.73 347.18 C 732.32 346.49, 733.04 345.97, 733.81 344.07 C 734.59 342.16, 734.90 340.54, 735.60 337.67 C 736.30 334.79, 737.13 332.48, 737.33 329.69 C 737.52 326.90, 737.28 325.05, 736.57 323.72 C 735.86 322.40, 734.98 322.22, 733.76 323.07" style="stroke: black; fill: black;"/><path d="M 779.22,389.75 C 778.30 390.05, 777.78 390.39, 776.92 391.89 C 776.07 393.39, 775.36 394.53, 774.95 397.26 C 774.54 400.00, 774.98 401.98, 774.87 405.56 C 774.75 409.14, 774.70 411.36, 774.38 415.14 C 774.07 418.93, 773.62 421.18, 773.29 424.49 C 772.96 427.81, 772.45 429.41, 772.72 431.73 C 773.00 434.04, 773.37 435.16, 774.65 436.05 C 775.93 436.95, 777.34 437.20, 779.11 436.21 C 780.88 435.21, 781.95 433.87, 783.50 431.07 C 785.05 428.26, 785.29 426.01, 786.87 422.16 C 788.44 418.32, 789.55 415.84, 791.39 411.84 C 793.22 407.84, 794.24 405.45, 796.06 402.18 C 797.87 398.90, 798.91 397.56, 800.47 395.45 C 802.03 393.33, 802.69 392.58, 803.84 391.59 C 805.00 390.60, 805.41 390.36, 806.24 390.50 C 807.06 390.65, 807.19 391.04, 807.97 392.33 C 808.75 393.61, 809.14 394.76, 810.13 396.93 C 811.12 399.11, 811.90 400.35, 812.90 403.20 C 813.90 406.05, 814.54 407.90, 815.13 411.19 C 815.73 414.47, 815.59 416.42, 815.88 419.62 C 816.17 422.82, 816.29 424.63, 816.57 427.18 C 816.84 429.73, 816.68 430.79, 817.26 432.38 C 817.84 433.96, 818.34 434.71, 819.46 435.10 C 820.58 435.48, 821.61 435.32, 822.86 434.31 C 824.10 433.29, 824.76 432.31, 825.67 430.02 C 826.59 427.73, 826.50 425.97, 827.43 422.86 C 828.36 419.76, 828.85 417.92, 830.33 414.50 C 831.82 411.08, 832.72 408.94, 834.86 405.77 C 836.99 402.61, 838.50 400.99, 841.01 398.69 C 843.53 396.39, 845.02 395.55, 847.43 394.28 C 849.83 393.00, 850.99 392.64, 853.04 392.32 C 855.09 391.99, 856.07 392.07, 857.67 392.65 C 859.28 393.22, 859.90 393.79, 861.06 395.21 C 862.23 396.63, 862.62 397.61, 863.52 399.74 C 864.42 401.87, 864.96 403.12, 865.58 405.86 C 866.20 408.60, 866.42 410.21, 866.62 413.44 C 866.82 416.67, 866.60 418.55, 866.57 422.01 C 866.54 425.47, 866.35 427.36, 866.48 430.75 C 866.61 434.15, 866.58 436.24, 867.22 438.96 C 867.86 441.68, 868.66 442.81, 869.68 444.34 C 870.69 445.88, 871.42 446.18, 872.30 446.65 C 873.18 447.12, 873.61 446.89, 874.07 446.71 C 874.52 446.53, 874.45 446.11, 874.55 445.75 C 874.66 445.40, 874.57 445.61, 874.58 444.93 C 874.60 444.26, 874.80 443.83, 874.62 442.37 C 874.44 440.91, 874.10 440.03, 873.68 437.63 C 873.27 435.23, 872.81 433.50, 872.55 430.39 C 872.29 427.27, 872.35 425.49, 872.37 422.05 C 872.39 418.61, 872.74 416.69, 872.66 413.19 C 872.58 409.69, 872.58 407.79, 871.97 404.54 C 871.36 401.30, 870.92 399.66, 869.62 396.96 C 868.32 394.25, 867.48 392.96, 865.45 391.03 C 863.43 389.10, 862.15 388.16, 859.50 387.29 C 856.86 386.42, 855.17 386.25, 852.21 386.66 C 849.26 387.06, 847.69 387.68, 844.73 389.32 C 841.77 390.96, 840.25 392.16, 837.42 394.86 C 834.60 397.57, 833.03 399.41, 830.61 402.84 C 828.19 406.26, 827.26 408.52, 825.31 412.01 C 823.37 415.50, 822.38 417.16, 820.87 420.29 C 819.35 423.42, 818.28 425.13, 817.76 427.66 C 817.24 430.19, 817.73 431.57, 818.26 432.94 C 818.80 434.32, 819.60 434.66, 820.43 434.54 C 821.26 434.42, 821.85 433.90, 822.41 432.34 C 822.96 430.77, 823.28 429.41, 823.21 426.73 C 823.13 424.05, 822.44 422.26, 822.02 418.95 C 821.61 415.64, 821.67 413.73, 821.12 410.19 C 820.58 406.64, 820.19 404.56, 819.31 401.24 C 818.43 397.93, 818.15 396.24, 816.72 393.62 C 815.30 390.99, 814.19 389.62, 812.17 388.11 C 810.16 386.61, 808.84 386.23, 806.64 386.10 C 804.43 385.97, 803.30 386.30, 801.15 387.47 C 799.00 388.65, 797.80 389.51, 795.89 391.97 C 793.97 394.43, 793.38 396.25, 791.56 399.78 C 789.75 403.31, 788.82 405.66, 786.81 409.63 C 784.80 413.60, 783.47 415.99, 781.51 419.64 C 779.55 423.28, 778.21 425.10, 777.01 427.85 C 775.81 430.60, 775.65 431.95, 775.52 433.38 C 775.38 434.81, 775.76 435.24, 776.34 435.00 C 776.91 434.76, 777.75 434.15, 778.37 432.18 C 778.98 430.21, 779.05 428.44, 779.42 425.15 C 779.80 421.86, 779.82 419.51, 780.25 415.72 C 780.67 411.92, 780.98 409.70, 781.53 406.19 C 782.08 402.68, 782.82 400.83, 783.02 398.17 C 783.21 395.51, 782.79 394.45, 782.49 392.89 C 782.19 391.34, 782.16 391.02, 781.50 390.40 C 780.85 389.77, 780.13 389.45, 779.22 389.75" style="stroke: black; fill: black;"/><path d="M 1054.69,333.91 C 1054.64 332.97, 1054.28 332.46, 1053.28 331.60 C 1052.27 330.75, 1051.59 330.16, 1049.67 329.65 C 1047.75 329.14, 1046.32 328.94, 1043.69 329.05 C 1041.06 329.15, 1039.62 329.33, 1036.52 330.19 C 1033.43 331.05, 1031.79 331.69, 1028.21 333.33 C 1024.63 334.97, 1022.68 335.87, 1018.62 338.38 C 1014.55 340.90, 1012.35 342.43, 1007.90 345.89 C 1003.45 349.36, 1000.83 351.27, 996.36 355.70 C 991.90 360.12, 989.63 362.80, 985.55 368.02 C 981.47 373.24, 979.39 376.30, 975.98 381.80 C 972.57 387.31, 970.93 390.16, 968.51 395.52 C 966.10 400.88, 965.15 403.58, 963.90 408.60 C 962.65 413.63, 962.20 416.12, 962.27 420.64 C 962.35 425.17, 962.82 427.39, 964.28 431.23 C 965.75 435.07, 966.86 436.99, 969.62 439.86 C 972.37 442.73, 974.24 443.94, 978.05 445.58 C 981.87 447.22, 984.20 447.70, 988.69 448.04 C 993.18 448.39, 995.97 447.95, 1000.51 447.30 C 1005.04 446.65, 1007.73 446.04, 1011.36 444.79 C 1014.98 443.53, 1017.36 442.28, 1018.63 441.03 C 1019.90 439.78, 1019.42 438.68, 1017.71 438.54 C 1016.00 438.40, 1013.65 439.50, 1010.07 440.31 C 1006.49 441.13, 1004.03 442.00, 999.82 442.62 C 995.61 443.25, 993.01 443.72, 989.02 443.45 C 985.04 443.18, 983.10 442.64, 979.89 441.28 C 976.67 439.91, 975.26 438.95, 972.94 436.62 C 970.63 434.29, 969.68 432.84, 968.33 429.62 C 966.97 426.39, 966.39 424.56, 966.18 420.51 C 965.97 416.47, 966.24 414.14, 967.29 409.40 C 968.34 404.66, 969.17 402.01, 971.43 396.82 C 973.69 391.62, 975.27 388.79, 978.58 383.41 C 981.89 378.03, 983.96 375.00, 987.98 369.93 C 991.99 364.86, 994.23 362.27, 998.66 358.07 C 1003.09 353.86, 1005.70 352.06, 1010.13 348.89 C 1014.56 345.71, 1016.81 344.32, 1020.81 342.21 C 1024.81 340.10, 1026.73 339.40, 1030.14 338.34 C 1033.55 337.29, 1035.14 337.22, 1037.86 336.92 C 1040.59 336.61, 1041.65 336.76, 1043.78 336.82 C 1045.90 336.88, 1046.96 337.17, 1048.50 337.20 C 1050.05 337.22, 1050.49 337.12, 1051.49 336.94 C 1052.50 336.76, 1052.90 336.91, 1053.54 336.30 C 1054.17 335.69, 1054.74 334.85, 1054.69 333.91" style="stroke: black; fill: black;"/><path d="M 1078.51,327.81 C 1077.65 329.00, 1077.40 330.69, 1076.98 333.85 C 1076.56 337.02, 1076.68 339.29, 1076.41 343.63 C 1076.14 347.98, 1076.15 350.60, 1075.63 355.59 C 1075.11 360.57, 1074.73 363.38, 1073.82 368.56 C 1072.91 373.74, 1072.10 376.32, 1071.09 381.49 C 1070.09 386.66, 1069.58 389.41, 1068.79 394.41 C 1068.01 399.41, 1067.73 402.00, 1067.17 406.48 C 1066.60 410.97, 1066.35 413.00, 1065.96 416.82 C 1065.57 420.63, 1065.24 422.57, 1065.22 425.55 C 1065.20 428.52, 1065.34 429.73, 1065.86 431.68 C 1066.38 433.63, 1066.57 434.26, 1067.82 435.29 C 1069.08 436.32, 1070.09 437.02, 1072.14 436.82 C 1074.19 436.62, 1075.84 436.26, 1078.07 434.30 C 1080.30 432.34, 1080.86 430.28, 1083.28 427.02 C 1085.71 423.75, 1087.15 421.68, 1090.19 417.97 C 1093.23 414.26, 1095.08 411.92, 1098.47 408.47 C 1101.85 405.01, 1103.71 403.16, 1107.12 400.69 C 1110.53 398.22, 1112.53 397.38, 1115.50 396.11 C 1118.48 394.85, 1119.91 394.66, 1121.99 394.38 C 1124.08 394.10, 1124.73 393.95, 1125.94 394.72 C 1127.15 395.49, 1127.31 396.24, 1128.05 398.24 C 1128.78 400.24, 1129.14 401.66, 1129.61 404.74 C 1130.09 407.82, 1130.49 409.89, 1130.41 413.64 C 1130.33 417.39, 1129.97 419.67, 1129.20 423.50 C 1128.44 427.33, 1127.66 429.31, 1126.58 432.77 C 1125.50 436.22, 1124.33 438.06, 1123.81 440.77 C 1123.29 443.48, 1123.62 444.60, 1123.98 446.33 C 1124.33 448.06, 1124.83 448.74, 1125.57 449.43 C 1126.30 450.12, 1127.18 449.99, 1127.66 449.79 C 1128.15 449.58, 1127.98 448.72, 1127.99 448.40 C 1128.00 448.09, 1127.59 448.59, 1127.71 448.20 C 1127.83 447.81, 1128.16 447.65, 1128.58 446.44 C 1129.00 445.22, 1129.16 444.58, 1129.81 442.14 C 1130.47 439.70, 1130.95 437.77, 1131.84 434.25 C 1132.73 430.72, 1133.45 428.58, 1134.25 424.50 C 1135.06 420.43, 1135.59 418.01, 1135.87 413.89 C 1136.14 409.77, 1136.11 407.54, 1135.64 403.89 C 1135.17 400.25, 1134.98 398.33, 1133.52 395.66 C 1132.06 393.00, 1130.73 391.85, 1128.32 390.55 C 1125.92 389.25, 1124.45 388.96, 1121.48 389.18 C 1118.52 389.39, 1116.89 390.03, 1113.49 391.64 C 1110.10 393.24, 1108.12 394.43, 1104.51 397.19 C 1100.90 399.96, 1099.00 401.91, 1095.43 405.45 C 1091.86 408.98, 1089.97 411.32, 1086.65 414.88 C 1083.34 418.44, 1081.62 420.43, 1078.86 423.24 C 1076.10 426.04, 1074.56 427.05, 1072.85 428.89 C 1071.14 430.72, 1070.91 431.51, 1070.32 432.40 C 1069.74 433.29, 1069.84 433.55, 1069.92 433.32 C 1070.00 433.10, 1070.49 432.84, 1070.73 431.29 C 1070.97 429.74, 1071.12 428.39, 1071.11 425.55 C 1071.09 422.71, 1070.62 420.80, 1070.64 417.07 C 1070.67 413.35, 1070.86 411.34, 1071.24 406.92 C 1071.62 402.50, 1071.85 399.91, 1072.54 394.96 C 1073.23 390.02, 1073.70 387.33, 1074.71 382.19 C 1075.71 377.05, 1076.53 374.48, 1077.57 369.26 C 1078.61 364.05, 1079.14 361.16, 1079.89 356.13 C 1080.64 351.09, 1080.81 348.45, 1081.32 344.07 C 1081.83 339.69, 1082.44 337.44, 1082.44 334.21 C 1082.43 330.98, 1082.09 329.18, 1081.30 327.90 C 1080.52 326.62, 1079.38 326.62, 1078.51 327.81" style="stroke: black; fill: black;"/><path d="M 1165.48,393.37 C 1164.59 393.69, 1164.33 394.17, 1163.62 395.38 C 1162.91 396.58, 1162.44 397.26, 1161.91 399.37 C 1161.38 401.49, 1161.14 403.06, 1160.96 405.97 C 1160.78 408.87, 1161.02 410.60, 1161.01 413.89 C 1161.00 417.17, 1160.83 419.12, 1160.90 422.37 C 1160.97 425.62, 1160.95 427.40, 1161.35 430.14 C 1161.76 432.89, 1161.91 434.10, 1162.92 436.09 C 1163.93 438.08, 1164.59 438.99, 1166.42 440.09 C 1168.24 441.19, 1169.58 441.68, 1172.06 441.60 C 1174.54 441.53, 1176.08 441.22, 1178.81 439.71 C 1181.55 438.20, 1182.96 436.64, 1185.72 434.06 C 1188.48 431.48, 1189.95 429.95, 1192.62 426.82 C 1195.28 423.70, 1196.56 421.80, 1199.03 418.45 C 1201.50 415.10, 1202.85 413.18, 1204.96 410.09 C 1207.07 407.00, 1208.08 405.48, 1209.57 402.98 C 1211.07 400.48, 1211.88 399.25, 1212.44 397.59 C 1213.00 395.93, 1212.75 395.08, 1212.37 394.68 C 1211.99 394.27, 1211.37 394.55, 1210.53 395.57 C 1209.70 396.59, 1208.72 397.39, 1208.19 399.78 C 1207.66 402.16, 1207.93 404.12, 1207.87 407.49 C 1207.80 410.86, 1207.78 412.92, 1207.86 416.62 C 1207.94 420.32, 1207.89 422.39, 1208.26 426.00 C 1208.62 429.60, 1208.73 431.45, 1209.68 434.65 C 1210.62 437.85, 1211.29 439.50, 1212.96 441.98 C 1214.64 444.46, 1215.56 445.59, 1218.05 447.04 C 1220.55 448.49, 1222.54 448.95, 1225.44 449.24 C 1228.35 449.53, 1230.19 449.31, 1232.57 448.47 C 1234.95 447.63, 1236.57 446.28, 1237.34 445.04 C 1238.12 443.80, 1237.63 442.87, 1236.43 442.28 C 1235.23 441.69, 1233.46 442.08, 1231.34 442.10 C 1229.23 442.13, 1227.99 442.44, 1225.86 442.42 C 1223.74 442.39, 1222.33 442.69, 1220.73 441.98 C 1219.13 441.26, 1218.92 440.65, 1217.86 438.85 C 1216.80 437.05, 1216.21 435.64, 1215.42 432.96 C 1214.64 430.28, 1214.24 428.69, 1213.95 425.45 C 1213.65 422.21, 1213.71 420.24, 1213.95 416.75 C 1214.19 413.27, 1214.73 411.24, 1215.14 408.01 C 1215.55 404.78, 1215.99 403.10, 1215.99 400.62 C 1215.98 398.15, 1215.90 397.19, 1215.11 395.65 C 1214.32 394.11, 1213.42 393.14, 1212.03 392.94 C 1210.64 392.73, 1209.71 393.24, 1208.16 394.61 C 1206.61 395.99, 1205.82 397.27, 1204.29 399.80 C 1202.77 402.34, 1202.39 404.14, 1200.53 407.27 C 1198.67 410.40, 1197.37 412.26, 1194.99 415.46 C 1192.62 418.66, 1191.31 420.49, 1188.66 423.27 C 1186.02 426.05, 1184.50 427.35, 1181.78 429.34 C 1179.07 431.34, 1177.25 431.95, 1175.10 433.24 C 1172.96 434.53, 1172.35 435.21, 1171.05 435.80 C 1169.74 436.38, 1169.24 436.42, 1168.57 436.15 C 1167.90 435.88, 1167.81 435.78, 1167.69 434.47 C 1167.58 433.15, 1168.05 432.02, 1168.01 429.58 C 1167.97 427.14, 1167.53 425.34, 1167.50 422.27 C 1167.47 419.20, 1167.55 417.33, 1167.86 414.23 C 1168.16 411.12, 1168.68 409.49, 1169.03 406.72 C 1169.38 403.96, 1169.58 402.49, 1169.61 400.40 C 1169.64 398.31, 1169.49 397.59, 1169.19 396.27 C 1168.88 394.95, 1168.81 394.38, 1168.07 393.80 C 1167.33 393.22, 1166.37 393.06, 1165.48 393.37" style="stroke: black; fill: black;"/><path d="M 1248.94,405.80 C 1248.11 406.45, 1247.71 407.33, 1247.54 409.09 C 1247.36 410.85, 1247.09 412.11, 1248.08 414.61 C 1249.06 417.10, 1250.14 418.99, 1252.45 421.57 C 1254.76 424.15, 1256.45 425.23, 1259.64 427.50 C 1262.84 429.77, 1264.85 430.91, 1268.42 432.90 C 1272.00 434.89, 1273.89 435.96, 1277.50 437.45 C 1281.11 438.93, 1283.19 439.54, 1286.48 440.35 C 1289.76 441.15, 1291.45 441.51, 1293.94 441.46 C 1296.42 441.41, 1297.51 440.70, 1298.89 440.08 C 1300.28 439.46, 1300.55 439.00, 1300.86 438.35 C 1301.18 437.71, 1300.97 437.29, 1300.47 436.86 C 1299.97 436.43, 1299.61 436.48, 1298.37 436.21 C 1297.13 435.94, 1296.39 435.83, 1294.26 435.52 C 1292.14 435.21, 1290.71 435.27, 1287.75 434.67 C 1284.79 434.07, 1282.79 433.80, 1279.45 432.53 C 1276.11 431.26, 1274.29 430.27, 1271.04 428.34 C 1267.80 426.41, 1265.85 425.13, 1263.22 422.89 C 1260.60 420.64, 1259.58 419.38, 1257.93 417.10 C 1256.27 414.82, 1255.92 413.25, 1254.94 411.46 C 1253.97 409.68, 1253.70 409.32, 1253.06 408.19 C 1252.41 407.06, 1252.55 406.31, 1251.72 405.83 C 1250.90 405.35, 1249.78 405.14, 1248.94 405.80" style="stroke: black; fill: black;"/><path d="M 1296.35,420.03 C 1295.07 419.30, 1293.22 419.12, 1290.48 419.31 C 1287.75 419.51, 1286.05 420.20, 1282.68 421.00 C 1279.31 421.79, 1277.21 422.22, 1273.64 423.28 C 1270.08 424.34, 1268.09 424.91, 1264.84 426.29 C 1261.59 427.67, 1260.13 428.53, 1257.37 430.17 C 1254.62 431.81, 1252.98 432.65, 1251.07 434.50 C 1249.17 436.36, 1248.59 437.73, 1247.85 439.46 C 1247.11 441.18, 1247.11 442.22, 1247.37 443.15 C 1247.64 444.09, 1248.31 444.30, 1249.18 444.12 C 1250.04 443.94, 1250.49 443.21, 1251.70 442.24 C 1252.92 441.27, 1253.47 440.64, 1255.25 439.26 C 1257.03 437.88, 1258.23 436.90, 1260.60 435.35 C 1262.97 433.81, 1264.16 432.80, 1267.09 431.53 C 1270.01 430.26, 1271.84 429.87, 1275.23 428.99 C 1278.62 428.12, 1280.74 427.83, 1284.04 427.15 C 1287.34 426.47, 1289.15 426.44, 1291.72 425.59 C 1294.28 424.74, 1295.93 424.03, 1296.86 422.92 C 1297.78 421.81, 1297.62 420.75, 1296.35 420.03" style="stroke: black; fill: black;"/><path d="M 1326.84,410.74 C 1326.19 411.25, 1326.19 411.36, 1325.71 412.63 C 1325.23 413.91, 1324.78 414.76, 1324.44 417.11 C 1324.10 419.46, 1324.24 421.24, 1324.01 424.38 C 1323.78 427.53, 1323.68 429.62, 1323.28 432.85 C 1322.89 436.07, 1322.25 437.95, 1322.01 440.52 C 1321.78 443.08, 1321.87 444.18, 1322.13 445.68 C 1322.38 447.18, 1322.90 447.52, 1323.29 448.01 C 1323.68 448.50, 1323.91 448.07, 1324.06 448.14 C 1324.22 448.22, 1323.83 448.31, 1324.05 448.38 C 1324.28 448.46, 1324.56 448.90, 1325.18 448.53 C 1325.81 448.15, 1326.44 447.90, 1327.17 446.52 C 1327.91 445.13, 1328.27 444.15, 1328.85 441.61 C 1329.44 439.07, 1329.57 437.09, 1330.10 433.83 C 1330.64 430.56, 1331.00 428.52, 1331.52 425.28 C 1332.05 422.03, 1332.78 420.25, 1332.74 417.61 C 1332.70 414.97, 1332.07 413.60, 1331.32 412.09 C 1330.57 410.59, 1329.89 410.36, 1329.00 410.09 C 1328.10 409.82, 1327.50 410.23, 1326.84 410.74" style="stroke: black; fill: black;"/><path d="M 1331.49,360.33 C 1332.50 360.43, 1333.21 360.33, 1333.44 359.88 C 1333.67 359.44, 1333.42 358.80, 1332.64 358.09 C 1331.86 357.38, 1330.64 356.52, 1329.56 356.33 C 1328.49 356.15, 1327.50 356.55, 1327.27 357.16 C 1327.03 357.76, 1327.55 358.72, 1328.39 359.35 C 1329.24 359.99, 1330.48 360.22, 1331.49 360.33" style="stroke: black; fill: black;"/><path d="M 1405.73,413.99 C 1405.93 412.89, 1405.62 412.02, 1404.71 410.47 C 1403.80 408.91, 1403.11 407.75, 1401.19 406.21 C 1399.26 404.67, 1397.74 403.85, 1395.09 402.77 C 1392.44 401.69, 1390.96 401.30, 1387.95 400.83 C 1384.94 400.36, 1383.13 400.34, 1380.02 400.43 C 1376.92 400.52, 1375.40 400.51, 1372.42 401.27 C 1369.45 402.04, 1367.73 402.59, 1365.15 404.25 C 1362.57 405.92, 1361.47 407.12, 1359.51 409.58 C 1357.55 412.04, 1356.66 413.58, 1355.36 416.53 C 1354.06 419.49, 1353.56 421.23, 1353.00 424.34 C 1352.44 427.46, 1352.35 429.15, 1352.55 432.11 C 1352.75 435.06, 1352.95 436.61, 1353.98 439.11 C 1355.02 441.60, 1355.85 442.84, 1357.73 444.58 C 1359.61 446.32, 1360.86 447.14, 1363.39 447.79 C 1365.92 448.45, 1367.55 448.55, 1370.39 447.86 C 1373.22 447.16, 1374.66 446.19, 1377.58 444.34 C 1380.49 442.49, 1382.05 441.26, 1384.95 438.60 C 1387.85 435.95, 1389.32 434.12, 1392.06 431.08 C 1394.81 428.04, 1396.39 426.18, 1398.67 423.41 C 1400.94 420.63, 1402.26 419.21, 1403.45 417.21 C 1404.64 415.20, 1404.77 414.05, 1404.61 413.36 C 1404.45 412.68, 1403.62 412.60, 1402.66 413.78 C 1401.70 414.96, 1400.74 416.39, 1399.82 419.26 C 1398.90 422.14, 1398.40 424.62, 1398.05 428.13 C 1397.70 431.65, 1397.36 434.96, 1398.06 436.86 C 1398.76 438.76, 1400.13 439.05, 1401.56 437.63 C 1402.98 436.20, 1404.01 433.08, 1405.20 429.74 C 1406.38 426.40, 1407.11 424.06, 1407.49 420.93 C 1407.87 417.80, 1407.82 416.04, 1407.10 414.11 C 1406.38 412.19, 1405.52 411.45, 1403.87 411.29 C 1402.22 411.14, 1400.79 411.63, 1398.86 413.34 C 1396.92 415.06, 1396.33 417.03, 1394.18 419.86 C 1392.03 422.69, 1390.68 424.61, 1388.09 427.51 C 1385.50 430.40, 1384.01 432.06, 1381.24 434.33 C 1378.47 436.59, 1376.77 437.39, 1374.24 438.84 C 1371.71 440.29, 1370.51 440.92, 1368.60 441.59 C 1366.68 442.25, 1366.04 442.40, 1364.67 442.17 C 1363.30 441.93, 1362.73 441.45, 1361.74 440.42 C 1360.74 439.38, 1360.20 438.72, 1359.69 437.00 C 1359.17 435.29, 1359.16 434.15, 1359.16 431.86 C 1359.16 429.57, 1359.22 428.09, 1359.68 425.56 C 1360.14 423.02, 1360.46 421.58, 1361.48 419.19 C 1362.49 416.80, 1363.34 415.54, 1364.75 413.61 C 1366.16 411.68, 1366.72 410.71, 1368.55 409.54 C 1370.37 408.36, 1371.58 408.17, 1373.88 407.74 C 1376.19 407.31, 1377.51 407.35, 1380.08 407.39 C 1382.65 407.43, 1384.32 407.50, 1386.73 407.96 C 1389.15 408.41, 1390.16 408.77, 1392.14 409.67 C 1394.13 410.57, 1395.01 411.40, 1396.65 412.45 C 1398.30 413.51, 1398.96 414.24, 1400.37 414.94 C 1401.78 415.63, 1402.64 416.13, 1403.71 415.94 C 1404.78 415.75, 1405.53 415.08, 1405.73 413.99" style="stroke: black; fill: black;"/><path d="M 1464.00,422.30 C 1465.08 422.29, 1465.79 421.80, 1466.74 420.83 C 1467.68 419.86, 1468.26 419.02, 1468.73 417.45 C 1469.20 415.88, 1469.17 414.65, 1469.08 412.98 C 1468.99 411.31, 1468.73 410.70, 1468.29 409.11 C 1467.85 407.51, 1467.87 406.47, 1466.87 405.01 C 1465.86 403.54, 1464.94 402.73, 1463.28 401.79 C 1461.62 400.84, 1460.73 400.46, 1458.57 400.29 C 1456.42 400.11, 1455.04 400.15, 1452.49 400.91 C 1449.94 401.68, 1448.36 402.31, 1445.84 404.09 C 1443.32 405.87, 1442.05 407.30, 1439.87 409.80 C 1437.69 412.31, 1436.53 413.77, 1434.94 416.63 C 1433.36 419.49, 1432.62 421.07, 1431.96 424.09 C 1431.29 427.11, 1431.22 428.88, 1431.61 431.74 C 1432.00 434.60, 1432.50 435.99, 1433.91 438.39 C 1435.32 440.78, 1436.21 441.99, 1438.65 443.69 C 1441.09 445.39, 1442.75 446.19, 1446.11 446.88 C 1449.46 447.58, 1451.43 447.39, 1455.43 447.15 C 1459.42 446.92, 1461.68 446.64, 1466.08 445.70 C 1470.47 444.76, 1473.05 444.09, 1477.41 442.45 C 1481.77 440.80, 1484.25 439.68, 1487.89 437.48 C 1491.52 435.28, 1493.28 434.10, 1495.58 431.45 C 1497.88 428.80, 1498.90 427.22, 1499.38 424.23 C 1499.86 421.24, 1499.50 419.28, 1497.96 416.48 C 1496.42 413.68, 1494.50 412.23, 1491.67 410.21 C 1488.85 408.20, 1486.84 407.28, 1483.85 406.40 C 1480.86 405.52, 1478.35 405.35, 1476.73 405.79 C 1475.10 406.24, 1474.82 407.29, 1475.73 408.63 C 1476.64 409.96, 1478.82 411.05, 1481.27 412.48 C 1483.72 413.91, 1485.61 414.32, 1487.98 415.76 C 1490.35 417.20, 1491.80 418.14, 1493.12 419.68 C 1494.44 421.21, 1494.88 421.78, 1494.58 423.43 C 1494.29 425.08, 1493.48 425.93, 1491.63 427.93 C 1489.79 429.92, 1488.51 431.36, 1485.34 433.39 C 1482.17 435.43, 1479.82 436.59, 1475.78 438.10 C 1471.74 439.61, 1469.24 440.23, 1465.15 440.95 C 1461.05 441.67, 1458.82 441.75, 1455.28 441.71 C 1451.75 441.67, 1450.10 441.40, 1447.46 440.77 C 1444.83 440.13, 1443.79 439.61, 1442.09 438.54 C 1440.39 437.47, 1439.83 436.92, 1438.96 435.42 C 1438.09 433.93, 1437.88 433.04, 1437.75 431.08 C 1437.62 429.12, 1437.72 427.84, 1438.31 425.61 C 1438.91 423.39, 1439.38 422.17, 1440.72 419.96 C 1442.05 417.74, 1443.10 416.45, 1445.00 414.55 C 1446.90 412.65, 1448.22 411.79, 1450.22 410.46 C 1452.22 409.12, 1453.33 408.64, 1455.01 407.87 C 1456.68 407.10, 1457.54 406.80, 1458.59 406.62 C 1459.65 406.43, 1459.71 406.59, 1460.27 406.95 C 1460.83 407.30, 1461.06 407.66, 1461.40 408.37 C 1461.74 409.08, 1461.84 409.58, 1461.95 410.49 C 1462.05 411.40, 1462.03 411.92, 1461.92 412.93 C 1461.81 413.93, 1461.61 414.50, 1461.40 415.53 C 1461.19 416.56, 1460.88 416.99, 1460.87 418.06 C 1460.85 419.13, 1460.70 420.04, 1461.33 420.88 C 1461.95 421.73, 1462.92 422.31, 1464.00 422.30" style="stroke: black; fill: black;"/></svg>