<svg xmlns="http://www.w3.org/2000/svg" id="canvas" viewBox="244.352 292.677 1012.516 156.431"><path d="M 292.44,296.03 C 291.14 296.68, 290.38 297.73, 289.40 300.05 C 288.43 302.38, 288.59 303.96, 287.56 307.65 C 286.52 311.34, 285.90 313.76, 284.23 318.50 C 282.55 323.24, 281.39 325.93, 279.18 331.36 C 276.97 336.78, 275.66 339.79, 273.19 345.61 C 270.71 351.43, 269.30 354.49, 266.79 360.46 C 264.29 366.43, 262.88 369.64, 260.65 375.45 C 258.42 381.26, 257.42 384.30, 255.64 389.52 C 253.86 394.74, 253.05 397.12, 251.76 401.56 C 250.46 406.00, 250.02 407.97, 249.18 411.72 C 248.33 415.47, 247.85 417.31, 247.53 420.31 C 247.21 423.32, 247.38 424.53, 247.58 426.74 C 247.78 428.95, 247.98 429.88, 248.52 431.37 C 249.06 432.86, 249.46 433.51, 250.27 434.18 C 251.09 434.84, 251.58 434.73, 252.58 434.69 C 253.59 434.66, 254.59 434.34, 255.31 434.00 C 256.02 433.65, 257.02 433.30, 256.16 432.96 C 255.30 432.62, 251.92 432.31, 251.02 432.29 C 250.12 432.27, 251.07 432.82, 251.66 432.85 C 252.26 432.88, 253.36 432.68, 254.01 432.43 C 254.66 432.17, 254.77 432.06, 254.92 431.55 C 255.07 431.04, 254.81 430.90, 254.75 429.87 C 254.68 428.85, 254.57 428.26, 254.60 426.45 C 254.63 424.64, 254.83 423.58, 254.90 420.81 C 254.97 418.05, 254.64 416.25, 254.96 412.64 C 255.29 409.03, 255.54 407.14, 256.51 402.78 C 257.48 398.43, 258.21 396.05, 259.80 390.87 C 261.39 385.69, 262.32 382.65, 264.45 376.88 C 266.59 371.11, 267.96 367.93, 270.47 362.01 C 272.98 356.09, 274.40 353.04, 277.01 347.29 C 279.61 341.53, 280.97 338.56, 283.47 333.23 C 285.97 327.91, 287.32 325.31, 289.49 320.65 C 291.65 315.99, 292.82 313.66, 294.29 309.92 C 295.76 306.19, 296.51 304.62, 296.82 301.99 C 297.14 299.37, 296.75 298.00, 295.87 296.81 C 295.00 295.62, 293.73 295.38, 292.44 296.03" style="stroke: #eee; fill: #eee;"/><path d="M 320.29,326.67 C 319.28 326.59, 318.94 326.68, 317.98 327.36 C 317.02 328.03, 316.37 328.45, 315.48 330.06 C 314.60 331.68, 314.19 332.74, 313.55 335.42 C 312.92 338.10, 313.13 339.90, 312.31 343.44 C 311.48 346.97, 310.90 348.92, 309.44 353.10 C 307.98 357.28, 306.92 359.71, 304.99 364.33 C 303.06 368.96, 301.90 371.52, 299.79 376.22 C 297.68 380.93, 296.45 383.33, 294.46 387.87 C 292.47 392.42, 291.50 394.75, 289.83 398.97 C 288.17 403.18, 287.53 405.28, 286.13 408.95 C 284.74 412.62, 283.99 414.30, 282.86 417.32 C 281.72 420.34, 281.10 421.69, 280.47 424.06 C 279.85 426.43, 279.76 427.63, 279.73 429.18 C 279.71 430.72, 279.93 431.03, 280.35 431.77 C 280.76 432.51, 281.29 432.61, 281.81 432.88 C 282.34 433.14, 282.99 433.21, 282.97 433.10 C 282.95 432.98, 281.82 432.27, 281.71 432.30 C 281.60 432.33, 281.82 433.09, 282.41 433.24 C 283.01 433.39, 283.92 433.55, 284.70 433.03 C 285.48 432.51, 285.68 432.04, 286.32 430.65 C 286.95 429.27, 287.21 428.34, 287.86 426.10 C 288.51 423.86, 288.78 422.49, 289.57 419.44 C 290.35 416.38, 290.74 414.55, 291.79 410.83 C 292.85 407.10, 293.38 405.02, 294.84 400.83 C 296.30 396.64, 297.18 394.38, 299.09 389.88 C 301.01 385.38, 302.24 383.00, 304.41 378.33 C 306.58 373.66, 307.80 371.11, 309.95 366.53 C 312.10 361.95, 313.24 359.53, 315.16 355.44 C 317.08 351.35, 317.86 349.44, 319.55 346.09 C 321.25 342.74, 322.56 341.32, 323.64 338.68 C 324.73 336.05, 324.82 334.74, 324.96 332.90 C 325.11 331.07, 324.77 330.54, 324.38 329.51 C 324.00 328.48, 323.85 328.31, 323.03 327.74 C 322.21 327.17, 321.30 326.75, 320.29 326.67" style="stroke: #eee; fill: #eee;"/><path d="M 253.98,394.79 C 254.60 395.62, 255.01 395.73, 256.21 396.04 C 257.41 396.34, 258.01 396.65, 259.99 396.31 C 261.96 395.98, 263.21 395.35, 266.07 394.37 C 268.93 393.38, 270.60 392.44, 274.29 391.39 C 277.97 390.34, 280.39 389.87, 284.50 389.13 C 288.61 388.39, 290.86 388.12, 294.82 387.70 C 298.78 387.28, 300.74 387.11, 304.31 387.02 C 307.88 386.92, 309.81 387.22, 312.66 387.23 C 315.51 387.23, 316.70 387.29, 318.56 387.05 C 320.42 386.81, 320.97 386.38, 321.96 386.03 C 322.95 385.67, 323.06 385.78, 323.52 385.29 C 323.98 384.80, 324.40 384.31, 324.26 383.57 C 324.11 382.82, 323.87 382.28, 322.81 381.54 C 321.74 380.80, 320.98 380.31, 318.93 379.86 C 316.88 379.42, 315.56 379.22, 312.54 379.31 C 309.52 379.41, 307.52 379.91, 303.84 380.33 C 300.15 380.75, 298.19 380.96, 294.13 381.42 C 290.06 381.88, 287.79 382.12, 283.53 382.63 C 279.27 383.15, 276.79 383.52, 272.82 383.99 C 268.85 384.46, 266.88 384.42, 263.69 384.97 C 260.50 385.52, 258.83 385.80, 256.86 386.75 C 254.90 387.70, 254.63 388.70, 253.87 389.73 C 253.12 390.76, 253.07 390.88, 253.09 391.90 C 253.11 392.91, 253.35 393.96, 253.98 394.79" style="stroke: #eee; fill: #eee;"/><path d="M 352.17,381.38 C 350.95 381.18, 350.29 381.42, 348.65 382.44 C 347.01 383.46, 345.67 384.08, 343.97 386.49 C 342.27 388.90, 341.85 391.07, 340.16 394.50 C 338.46 397.93, 337.31 400.02, 335.50 403.63 C 333.69 407.24, 332.66 409.20, 331.11 412.55 C 329.55 415.90, 328.50 417.59, 327.73 420.37 C 326.96 423.15, 326.86 424.66, 327.26 426.45 C 327.66 428.24, 328.54 428.85, 329.74 429.33 C 330.93 429.80, 332.44 429.36, 333.24 428.82 C 334.05 428.27, 334.65 427.23, 333.76 426.60 C 332.86 425.96, 329.81 425.53, 328.78 425.64 C 327.74 425.76, 328.16 426.60, 328.57 427.19 C 328.98 427.78, 329.89 428.48, 330.83 428.58 C 331.76 428.67, 332.27 428.81, 333.27 427.68 C 334.26 426.56, 334.90 425.41, 335.81 422.95 C 336.71 420.49, 336.57 418.56, 337.79 415.38 C 339.00 412.19, 339.99 410.37, 341.89 407.04 C 343.78 403.70, 345.18 401.69, 347.27 398.70 C 349.37 395.70, 350.90 394.40, 352.36 392.06 C 353.82 389.73, 354.08 388.73, 354.56 387.02 C 355.03 385.30, 355.23 384.60, 354.75 383.48 C 354.28 382.35, 353.39 381.59, 352.17 381.38" style="stroke: #eee; fill: #eee;"/><path d="M 372.93,344.17 C 372.71 342.91, 371.81 342.12, 371.35 342.22 C 370.89 342.32, 370.36 343.43, 370.61 344.67 C 370.87 345.91, 372.18 347.30, 372.63 348.44 C 373.09 349.58, 372.93 350.34, 372.89 350.36 C 372.86 350.38, 372.45 349.78, 372.46 348.54 C 372.47 347.30, 373.16 345.43, 372.93 344.17" style="stroke: #eee; fill: #eee;"/><path d="M 498.12,347.65 C 496.87 348.04, 496.13 348.51, 494.93 350.58 C 493.73 352.64, 493.51 354.25, 492.10 357.98 C 490.70 361.70, 489.94 364.33, 487.90 369.19 C 485.85 374.05, 484.51 376.98, 481.89 382.28 C 479.27 387.58, 477.64 390.47, 474.79 395.68 C 471.94 400.89, 470.25 403.55, 467.63 408.34 C 465.00 413.13, 463.83 415.54, 461.67 419.62 C 459.50 423.70, 458.39 425.55, 456.81 428.73 C 455.24 431.90, 454.43 433.21, 453.78 435.50 C 453.13 437.78, 453.37 438.78, 453.57 440.15 C 453.78 441.52, 454.10 441.73, 454.81 442.34 C 455.52 442.95, 456.38 443.21, 457.12 443.20 C 457.86 443.19, 458.91 442.79, 458.52 442.30 C 458.12 441.82, 455.68 440.99, 455.16 440.78 C 454.65 440.56, 455.50 441.07, 455.94 441.24 C 456.37 441.42, 456.82 441.70, 457.35 441.66 C 457.89 441.62, 458.03 441.83, 458.62 441.04 C 459.20 440.25, 459.50 439.66, 460.29 437.70 C 461.08 435.74, 461.37 434.41, 462.56 431.24 C 463.76 428.07, 464.45 426.00, 466.26 421.84 C 468.08 417.69, 469.16 415.28, 471.64 410.48 C 474.12 405.67, 475.77 403.02, 478.66 397.82 C 481.55 392.61, 483.22 389.71, 486.09 384.47 C 488.96 379.23, 490.49 376.35, 493.01 371.62 C 495.53 366.89, 496.91 364.49, 498.69 360.81 C 500.47 357.13, 501.41 355.65, 501.91 353.22 C 502.41 350.79, 501.94 349.77, 501.18 348.66 C 500.42 347.54, 499.37 347.27, 498.12 347.65" style="stroke: #eee; fill: #eee;"/><path d="M 549.45,339.34 C 548.42 338.80, 547.65 338.51, 546.22 338.94 C 544.79 339.38, 543.69 340.09, 542.32 341.52 C 540.95 342.94, 540.48 344.11, 539.37 346.07 C 538.26 348.02, 537.72 349.29, 536.75 351.29 C 535.77 353.29, 535.21 354.40, 534.48 356.08 C 533.75 357.76, 533.50 358.35, 533.09 359.70 C 532.69 361.05, 532.39 361.47, 532.44 362.83 C 532.49 364.18, 532.62 365.15, 533.34 366.49 C 534.06 367.82, 534.75 368.66, 536.04 369.49 C 537.34 370.33, 538.05 370.40, 539.82 370.66 C 541.58 370.92, 542.63 370.94, 544.85 370.77 C 547.07 370.60, 548.50 370.14, 550.92 369.82 C 553.33 369.50, 554.54 369.39, 556.95 369.15 C 559.35 368.91, 560.84 368.82, 562.95 368.61 C 565.06 368.40, 565.79 368.41, 567.50 368.11 C 569.21 367.81, 570.55 367.97, 571.51 367.11 C 572.47 366.25, 572.90 365.03, 572.30 363.80 C 571.71 362.56, 570.38 361.76, 568.54 360.94 C 566.70 360.13, 565.52 360.01, 563.11 359.72 C 560.70 359.43, 559.12 359.51, 556.50 359.50 C 553.87 359.49, 552.50 359.55, 549.99 359.68 C 547.49 359.80, 546.03 359.93, 543.96 360.12 C 541.89 360.31, 540.98 360.32, 539.64 360.63 C 538.31 360.94, 537.87 361.13, 537.27 361.67 C 536.67 362.20, 536.63 362.73, 536.64 363.32 C 536.64 363.90, 536.76 364.55, 537.28 364.61 C 537.81 364.67, 538.34 364.38, 539.27 363.62 C 540.20 362.86, 540.71 362.21, 541.94 360.80 C 543.16 359.40, 544.03 358.40, 545.39 356.59 C 546.75 354.79, 547.55 353.57, 548.72 351.78 C 549.90 349.99, 550.58 349.19, 551.25 347.65 C 551.92 346.11, 552.04 345.28, 552.06 344.08 C 552.07 342.87, 551.85 342.58, 551.33 341.63 C 550.81 340.69, 550.47 339.88, 549.45 339.34" style="stroke: #eee; fill: #eee;"/><path d="M 602.85,389.16 C 601.65 389.50, 601.27 390.10, 600.15 391.58 C 599.04 393.07, 598.35 393.97, 597.26 396.60 C 596.17 399.24, 596.05 401.29, 594.70 404.77 C 593.35 408.25, 592.38 410.31, 590.51 414.00 C 588.63 417.70, 587.38 419.82, 585.34 423.26 C 583.30 426.71, 581.35 428.42, 580.32 431.22 C 579.30 434.02, 579.45 435.69, 580.22 437.27 C 580.98 438.84, 582.26 439.43, 584.13 439.09 C 586.00 438.75, 587.38 437.98, 589.56 435.56 C 591.73 433.15, 592.54 430.72, 595.02 427.02 C 597.50 423.33, 598.97 420.79, 601.95 417.10 C 604.92 413.41, 606.70 411.52, 609.90 408.56 C 613.10 405.60, 615.01 404.35, 617.94 402.30 C 620.86 400.26, 622.55 399.58, 624.53 398.32 C 626.51 397.06, 627.03 396.50, 627.83 396.00 C 628.63 395.50, 628.68 395.52, 628.55 395.83 C 628.41 396.14, 627.80 396.31, 627.15 397.56 C 626.49 398.80, 626.01 399.88, 625.28 402.05 C 624.55 404.22, 624.51 405.72, 623.49 408.41 C 622.46 411.11, 621.49 412.80, 620.16 415.53 C 618.82 418.27, 617.44 419.61, 616.82 422.08 C 616.19 424.54, 616.27 426.10, 617.03 427.85 C 617.78 429.59, 618.64 430.58, 620.59 430.82 C 622.54 431.05, 624.27 430.87, 626.78 429.02 C 629.30 427.17, 630.22 424.78, 633.18 421.57 C 636.14 418.35, 637.97 416.16, 641.59 412.94 C 645.21 409.73, 647.51 408.04, 651.27 405.51 C 655.03 402.97, 657.11 401.78, 660.40 400.29 C 663.68 398.79, 665.45 398.62, 667.71 398.01 C 669.97 397.41, 670.62 397.20, 671.68 397.26 C 672.74 397.32, 672.95 397.54, 673.01 398.31 C 673.06 399.08, 672.64 399.30, 671.96 401.10 C 671.29 402.91, 670.71 404.48, 669.62 407.35 C 668.54 410.21, 668.01 412.20, 666.55 415.41 C 665.10 418.63, 664.04 420.40, 662.36 423.43 C 660.68 426.46, 659.21 427.92, 658.15 430.57 C 657.10 433.22, 657.01 434.65, 657.09 436.67 C 657.16 438.69, 657.81 439.65, 658.53 440.66 C 659.24 441.67, 659.98 441.75, 660.66 441.71 C 661.35 441.67, 661.64 440.89, 661.97 440.47 C 662.30 440.06, 662.01 440.14, 662.31 439.64 C 662.62 439.13, 662.80 439.06, 663.49 437.94 C 664.19 436.83, 664.65 436.23, 665.80 434.07 C 666.95 431.90, 667.67 430.16, 669.24 427.12 C 670.82 424.08, 671.95 422.18, 673.66 418.87 C 675.38 415.56, 676.48 413.86, 677.83 410.58 C 679.17 407.29, 680.29 405.42, 680.37 402.44 C 680.45 399.46, 679.65 397.85, 678.24 395.69 C 676.83 393.53, 675.74 392.59, 673.31 391.63 C 670.88 390.68, 669.22 390.30, 666.08 390.93 C 662.95 391.57, 661.23 392.83, 657.63 394.80 C 654.03 396.78, 652.07 398.11, 648.09 400.81 C 644.12 403.51, 641.79 405.25, 637.78 408.30 C 633.77 411.35, 631.50 413.29, 628.04 416.06 C 624.59 418.84, 622.46 419.94, 620.52 422.18 C 618.57 424.41, 618.21 425.85, 618.33 427.24 C 618.45 428.64, 619.75 429.37, 621.13 429.14 C 622.51 428.90, 623.79 427.97, 625.23 426.06 C 626.67 424.16, 626.93 422.40, 628.34 419.61 C 629.76 416.82, 630.93 415.12, 632.30 412.12 C 633.68 409.11, 634.66 407.45, 635.21 404.57 C 635.76 401.69, 635.64 400.07, 635.06 397.71 C 634.48 395.36, 633.86 394.26, 632.30 392.81 C 630.74 391.35, 629.56 390.64, 627.28 390.45 C 624.99 390.26, 623.50 390.49, 620.86 391.86 C 618.22 393.22, 617.05 394.78, 614.07 397.28 C 611.09 399.79, 609.29 401.20, 605.96 404.37 C 602.63 407.55, 600.78 409.54, 597.41 413.17 C 594.05 416.79, 592.13 419.08, 589.13 422.49 C 586.14 425.90, 584.14 427.49, 582.45 430.22 C 580.76 432.95, 580.53 434.50, 580.70 436.13 C 580.86 437.77, 581.86 438.62, 583.28 438.40 C 584.71 438.19, 586.20 437.44, 587.83 435.06 C 589.45 432.69, 589.68 430.10, 591.41 426.52 C 593.14 422.95, 594.41 420.87, 596.48 417.19 C 598.55 413.52, 599.81 411.54, 601.75 408.15 C 603.69 404.75, 605.07 403.07, 606.19 400.21 C 607.32 397.35, 607.40 395.91, 607.39 393.85 C 607.38 391.79, 607.06 390.86, 606.15 389.92 C 605.25 388.99, 604.05 388.83, 602.85 389.16" style="stroke: #eee; fill: #eee;"/><path d="M 862.98,357.72 C 862.37 356.56, 861.48 355.77, 859.44 355.33 C 857.40 354.88, 855.85 354.55, 852.76 355.49 C 849.67 356.43, 847.88 357.63, 844.00 360.02 C 840.11 362.41, 837.93 364.07, 833.33 367.46 C 828.73 370.84, 826.11 372.85, 821.00 376.93 C 815.88 381.00, 812.82 383.34, 807.75 387.83 C 802.68 392.32, 799.90 394.82, 795.63 399.38 C 791.37 403.95, 789.40 406.39, 786.41 410.66 C 783.43 414.93, 782.15 416.87, 780.69 420.73 C 779.22 424.60, 778.60 426.58, 779.10 429.99 C 779.59 433.39, 780.65 435.36, 783.15 437.75 C 785.65 440.15, 787.64 440.86, 791.60 441.96 C 795.55 443.07, 797.92 443.30, 802.92 443.27 C 807.92 443.24, 810.94 442.75, 816.58 441.81 C 822.22 440.87, 825.28 440.05, 831.12 438.55 C 836.95 437.06, 840.13 436.23, 845.75 434.34 C 851.37 432.46, 854.24 431.29, 859.21 429.14 C 864.19 426.98, 866.77 425.61, 870.60 423.58 C 874.44 421.55, 876.20 420.84, 878.38 418.97 C 880.56 417.11, 881.19 415.61, 881.50 414.27 C 881.80 412.93, 881.20 412.32, 879.89 412.28 C 878.59 412.24, 877.38 412.76, 874.98 414.06 C 872.58 415.37, 871.44 416.65, 867.89 418.82 C 864.35 420.98, 861.98 422.61, 857.27 424.88 C 852.56 427.16, 849.79 428.34, 844.34 430.20 C 838.90 432.06, 835.74 432.84, 830.04 434.19 C 824.35 435.53, 821.26 436.24, 815.86 436.90 C 810.47 437.57, 807.53 437.77, 803.05 437.52 C 798.57 437.27, 796.53 436.63, 793.47 435.65 C 790.41 434.67, 789.40 433.97, 787.77 432.64 C 786.14 431.30, 785.69 431.00, 785.30 428.97 C 784.91 426.95, 784.82 425.68, 785.81 422.52 C 786.79 419.36, 787.65 417.26, 790.22 413.19 C 792.79 409.12, 794.62 406.63, 798.66 402.16 C 802.70 397.70, 805.42 395.21, 810.41 390.85 C 815.40 386.49, 818.48 384.18, 823.63 380.35 C 828.78 376.51, 831.51 374.56, 836.18 371.68 C 840.85 368.80, 843.17 367.45, 846.99 365.95 C 850.81 364.45, 852.70 364.89, 855.26 364.20 C 857.82 363.52, 858.36 363.16, 859.80 362.54 C 861.24 361.92, 861.82 362.07, 862.46 361.11 C 863.09 360.14, 863.58 358.87, 862.98 357.72" style="stroke: #eee; fill: #eee;"/><path d="M 914.34,362.90 C 913.28 362.49, 912.53 362.50, 911.04 363.19 C 909.55 363.88, 908.50 364.31, 906.89 366.35 C 905.27 368.40, 904.70 370.17, 902.96 373.43 C 901.22 376.69, 900.32 378.83, 898.18 382.66 C 896.05 386.48, 894.76 388.63, 892.28 392.56 C 889.79 396.48, 888.22 398.51, 885.76 402.29 C 883.29 406.07, 882.15 408.15, 879.96 411.44 C 877.78 414.74, 876.12 416.08, 874.82 418.75 C 873.52 421.42, 873.22 422.84, 873.47 424.77 C 873.71 426.71, 874.49 427.68, 876.04 428.43 C 877.60 429.17, 879.10 429.46, 881.26 428.49 C 883.42 427.53, 884.42 426.11, 886.85 423.58 C 889.28 421.06, 890.42 418.92, 893.42 415.88 C 896.41 412.84, 898.37 411.09, 901.84 408.38 C 905.32 405.68, 907.46 404.24, 910.79 402.36 C 914.11 400.48, 915.99 399.96, 918.47 398.99 C 920.95 398.02, 921.92 397.77, 923.21 397.51 C 924.50 397.24, 924.72 397.19, 924.92 397.68 C 925.13 398.17, 924.74 398.60, 924.22 399.98 C 923.69 401.36, 923.04 402.35, 922.29 404.57 C 921.53 406.79, 921.38 408.42, 920.44 411.10 C 919.50 413.78, 918.54 415.25, 917.60 417.95 C 916.65 420.64, 916.26 422.17, 915.72 424.59 C 915.18 427.02, 914.96 428.22, 914.89 430.08 C 914.81 431.93, 914.99 432.65, 915.35 433.87 C 915.71 435.08, 915.92 435.66, 916.70 436.15 C 917.48 436.65, 918.41 436.67, 919.25 436.34 C 920.09 436.01, 920.30 435.44, 920.90 434.48 C 921.50 433.52, 921.68 433.01, 922.26 431.52 C 922.84 430.03, 922.99 429.07, 923.80 427.05 C 924.61 425.04, 925.18 423.96, 926.32 421.44 C 927.46 418.92, 928.38 417.37, 929.51 414.46 C 930.64 411.56, 931.48 409.84, 931.97 406.92 C 932.47 404.00, 932.58 402.41, 931.99 399.85 C 931.39 397.29, 930.73 395.82, 929.01 394.11 C 927.30 392.41, 926.02 391.73, 923.41 391.34 C 920.80 390.95, 919.12 391.04, 915.95 392.16 C 912.77 393.27, 911.10 394.67, 907.53 396.93 C 903.96 399.18, 901.87 400.69, 898.12 403.43 C 894.36 406.17, 892.25 407.88, 888.74 410.62 C 885.23 413.37, 883.16 414.78, 880.58 417.15 C 878.00 419.52, 876.76 420.65, 875.83 422.47 C 874.90 424.29, 875.42 425.46, 875.93 426.26 C 876.44 427.06, 877.18 427.22, 878.36 426.47 C 879.53 425.72, 880.40 424.88, 881.81 422.51 C 883.22 420.15, 883.65 418.07, 885.41 414.64 C 887.17 411.22, 888.26 409.16, 890.61 405.38 C 892.96 401.61, 894.53 399.61, 897.16 395.77 C 899.79 391.94, 901.21 389.74, 903.76 386.20 C 906.30 382.65, 907.62 380.83, 909.90 378.04 C 912.19 375.25, 913.86 374.32, 915.17 372.24 C 916.49 370.16, 916.24 369.06, 916.47 367.65 C 916.70 366.25, 916.76 366.17, 916.34 365.22 C 915.91 364.27, 915.40 363.30, 914.34 362.90" style="stroke: #eee; fill: #eee;"/><path d="M 953.05,399.76 C 952.00 399.81, 951.86 399.88, 950.68 400.75 C 949.49 401.62, 948.39 402.05, 947.13 404.11 C 945.87 406.17, 945.59 408.12, 944.38 411.05 C 943.18 413.97, 942.25 415.73, 941.12 418.73 C 940.00 421.74, 939.18 423.28, 938.76 426.09 C 938.35 428.90, 938.32 430.41, 939.05 432.78 C 939.79 435.14, 940.62 436.38, 942.44 437.91 C 944.26 439.43, 945.59 439.98, 948.13 440.39 C 950.67 440.80, 952.26 440.78, 955.13 439.95 C 958.01 439.13, 959.49 438.02, 962.51 436.26 C 965.54 434.51, 967.11 433.35, 970.25 431.17 C 973.38 428.99, 975.05 427.79, 978.18 425.37 C 981.30 422.95, 982.96 421.58, 985.88 419.07 C 988.80 416.55, 990.36 415.12, 992.78 412.81 C 995.20 410.51, 996.44 409.44, 997.98 407.54 C 999.53 405.64, 1000.19 404.81, 1000.51 403.33 C 1000.83 401.84, 1000.58 400.77, 999.59 400.11 C 998.60 399.45, 997.18 399.23, 995.57 400.02 C 993.96 400.81, 992.94 401.81, 991.54 404.05 C 990.13 406.30, 989.82 408.11, 988.56 411.25 C 987.29 414.39, 986.32 416.41, 985.22 419.73 C 984.12 423.05, 983.48 424.94, 983.06 427.86 C 982.64 430.78, 982.87 432.11, 983.13 434.31 C 983.38 436.51, 983.73 437.43, 984.33 438.87 C 984.93 440.31, 985.35 440.84, 986.14 441.52 C 986.93 442.20, 987.43 442.40, 988.28 442.26 C 989.12 442.12, 989.87 441.46, 990.37 440.82 C 990.87 440.18, 990.76 439.80, 990.79 439.05 C 990.82 438.29, 990.62 438.01, 990.51 437.04 C 990.40 436.08, 990.04 435.73, 990.25 434.23 C 990.46 432.73, 990.95 431.86, 991.57 429.56 C 992.19 427.25, 992.23 425.50, 993.37 422.69 C 994.50 419.89, 995.61 418.23, 997.22 415.52 C 998.84 412.80, 1000.44 411.58, 1001.44 409.13 C 1002.45 406.68, 1002.54 405.17, 1002.24 403.26 C 1001.94 401.35, 1001.14 400.38, 999.94 399.57 C 998.74 398.77, 997.80 398.75, 996.24 399.25 C 994.67 399.75, 993.87 400.40, 992.10 402.05 C 990.33 403.71, 989.55 405.16, 987.39 407.54 C 985.23 409.92, 983.97 411.47, 981.31 413.95 C 978.64 416.43, 977.07 417.73, 974.07 419.92 C 971.07 422.11, 969.39 423.17, 966.30 424.91 C 963.22 426.65, 961.47 427.42, 958.65 428.61 C 955.83 429.81, 954.29 430.10, 952.20 430.88 C 950.10 431.66, 949.39 432.13, 948.17 432.52 C 946.95 432.91, 946.65 433.03, 946.10 432.84 C 945.54 432.65, 945.28 432.49, 945.39 431.58 C 945.51 430.66, 945.82 430.05, 946.67 428.26 C 947.51 426.47, 948.22 425.17, 949.63 422.61 C 951.05 420.04, 952.23 418.25, 953.72 415.44 C 955.22 412.62, 956.39 410.95, 957.12 408.52 C 957.84 406.10, 957.58 404.90, 957.34 403.29 C 957.11 401.69, 956.79 401.19, 955.93 400.49 C 955.07 399.78, 954.10 399.71, 953.05 399.76" style="stroke: #eee; fill: #eee;"/><path d="M 1051.97,372.11 C 1050.68 372.16, 1049.86 372.76, 1048.59 374.09 C 1047.33 375.42, 1046.60 376.38, 1045.66 378.77 C 1044.72 381.17, 1044.60 382.93, 1043.90 386.06 C 1043.19 389.19, 1042.99 391.08, 1042.14 394.40 C 1041.29 397.73, 1040.71 399.37, 1039.64 402.69 C 1038.56 406.01, 1037.89 407.83, 1036.77 411.01 C 1035.65 414.18, 1034.81 415.70, 1034.04 418.55 C 1033.28 421.40, 1033.17 422.81, 1032.94 425.26 C 1032.72 427.70, 1032.73 428.90, 1032.93 430.79 C 1033.12 432.68, 1033.30 433.54, 1033.91 434.71 C 1034.53 435.88, 1035.23 436.23, 1036.01 436.64 C 1036.79 437.05, 1037.23 436.99, 1037.80 436.77 C 1038.36 436.55, 1038.48 435.95, 1038.83 435.55 C 1039.17 435.14, 1039.19 435.20, 1039.50 434.74 C 1039.81 434.29, 1040.19 434.13, 1040.35 433.28 C 1040.52 432.43, 1040.28 431.89, 1040.34 430.49 C 1040.40 429.09, 1040.30 428.23, 1040.66 426.27 C 1041.01 424.31, 1041.46 423.28, 1042.13 420.69 C 1042.80 418.10, 1043.10 416.46, 1044.01 413.33 C 1044.91 410.19, 1045.51 408.34, 1046.65 405.03 C 1047.79 401.73, 1048.46 400.07, 1049.70 396.80 C 1050.94 393.54, 1051.74 391.72, 1052.85 388.71 C 1053.97 385.70, 1054.72 384.10, 1055.26 381.76 C 1055.79 379.42, 1055.57 378.58, 1055.53 377.00 C 1055.49 375.42, 1055.76 374.83, 1055.05 373.86 C 1054.34 372.88, 1053.26 372.07, 1051.97 372.11" style="stroke: #eee; fill: #eee;"/><path d="M 1012.86,393.71 C 1013.90 394.31, 1014.56 394.00, 1015.87 393.86 C 1017.17 393.72, 1017.59 393.50, 1019.40 393.02 C 1021.20 392.55, 1022.19 392.15, 1024.88 391.47 C 1027.57 390.80, 1029.33 390.23, 1032.85 389.64 C 1036.37 389.04, 1038.54 388.74, 1042.49 388.49 C 1046.44 388.25, 1048.64 388.30, 1052.60 388.43 C 1056.57 388.55, 1058.90 388.74, 1062.34 389.13 C 1065.77 389.52, 1067.30 390.18, 1069.77 390.37 C 1072.24 390.57, 1073.18 390.24, 1074.69 390.10 C 1076.20 389.96, 1076.60 390.16, 1077.31 389.68 C 1078.03 389.21, 1078.49 388.66, 1078.27 387.73 C 1078.05 386.80, 1077.67 386.07, 1076.21 385.03 C 1074.75 384.00, 1073.63 383.16, 1070.96 382.57 C 1068.29 381.98, 1066.50 382.22, 1062.86 382.08 C 1059.22 381.94, 1056.88 381.94, 1052.76 381.87 C 1048.64 381.81, 1046.39 381.74, 1042.27 381.76 C 1038.15 381.78, 1035.98 381.92, 1032.15 381.99 C 1028.33 382.06, 1026.38 381.70, 1023.15 382.12 C 1019.91 382.54, 1018.23 383.02, 1015.98 384.10 C 1013.72 385.18, 1012.92 386.15, 1011.86 387.51 C 1010.80 388.86, 1010.48 389.64, 1010.68 390.88 C 1010.88 392.12, 1011.82 393.11, 1012.86 393.71" style="stroke: #eee; fill: #eee;"/><path d="M 1102.04,398.92 C 1100.75 399.17, 1100.25 399.83, 1098.95 401.25 C 1097.66 402.67, 1096.72 403.62, 1095.57 406.00 C 1094.42 408.38, 1094.16 410.36, 1093.20 413.14 C 1092.24 415.92, 1091.82 417.20, 1090.75 419.88 C 1089.69 422.57, 1088.80 424.12, 1087.89 426.57 C 1086.98 429.02, 1086.47 430.17, 1086.20 432.14 C 1085.94 434.11, 1086.18 435.20, 1086.55 436.43 C 1086.93 437.67, 1087.44 437.93, 1088.08 438.30 C 1088.72 438.67, 1089.12 438.46, 1089.76 438.29 C 1090.40 438.12, 1090.48 438.14, 1091.27 437.45 C 1092.06 436.76, 1092.74 436.30, 1093.71 434.82 C 1094.68 433.34, 1095.02 432.32, 1096.11 430.05 C 1097.20 427.79, 1097.91 426.15, 1099.15 423.50 C 1100.38 420.85, 1101.03 419.52, 1102.28 416.81 C 1103.53 414.09, 1104.60 412.48, 1105.42 409.93 C 1106.23 407.38, 1106.37 406.04, 1106.36 404.06 C 1106.36 402.08, 1106.25 401.05, 1105.38 400.03 C 1104.52 399.00, 1103.33 398.68, 1102.04 398.92" style="stroke: #eee; fill: #eee;"/><path d="M 1115.62,356.74 C 1114.78 355.63, 1114.10 355.18, 1113.41 355.57 C 1112.71 355.95, 1112.18 357.61, 1112.16 358.68 C 1112.13 359.75, 1112.34 360.58, 1113.28 360.91 C 1114.21 361.24, 1115.95 360.29, 1116.84 360.32 C 1117.73 360.36, 1117.53 360.51, 1117.72 361.09 C 1117.90 361.67, 1117.79 363.22, 1117.77 363.22 C 1117.75 363.23, 1118.05 362.41, 1117.62 361.11 C 1117.19 359.81, 1116.47 357.84, 1115.62 356.74" style="stroke: #eee; fill: #eee;"/><path d="M 1157.61,405.87 C 1157.79 404.53, 1157.47 403.53, 1156.32 402.10 C 1155.16 400.67, 1154.07 399.74, 1151.83 398.71 C 1149.59 397.69, 1148.08 397.24, 1145.14 396.98 C 1142.19 396.71, 1140.28 396.64, 1137.10 397.39 C 1133.91 398.15, 1132.37 398.95, 1129.20 400.74 C 1126.03 402.52, 1124.40 403.84, 1121.26 406.32 C 1118.12 408.79, 1116.34 410.27, 1113.50 413.13 C 1110.66 416.00, 1109.18 417.57, 1107.07 420.62 C 1104.95 423.67, 1103.64 425.31, 1102.92 428.38 C 1102.20 431.45, 1102.36 433.36, 1103.47 435.97 C 1104.58 438.59, 1105.81 440.03, 1108.47 441.48 C 1111.13 442.92, 1113.02 443.27, 1116.77 443.18 C 1120.51 443.10, 1122.79 442.31, 1127.20 441.04 C 1131.61 439.77, 1134.21 438.88, 1138.83 436.84 C 1143.46 434.80, 1145.89 433.48, 1150.32 430.86 C 1154.75 428.23, 1157.06 426.54, 1160.97 423.72 C 1164.87 420.91, 1166.99 419.45, 1169.85 416.77 C 1172.72 414.09, 1174.31 412.72, 1175.29 410.33 C 1176.27 407.94, 1175.85 406.35, 1174.75 404.82 C 1173.66 403.29, 1172.15 402.56, 1169.80 402.67 C 1167.45 402.78, 1165.31 403.33, 1163.00 405.37 C 1160.69 407.41, 1159.97 409.76, 1158.24 412.87 C 1156.52 415.98, 1155.65 417.74, 1154.39 420.91 C 1153.13 424.09, 1152.33 425.80, 1151.95 428.75 C 1151.56 431.70, 1151.70 433.48, 1152.45 435.68 C 1153.21 437.87, 1154.48 439.14, 1155.72 439.73 C 1156.97 440.31, 1158.03 439.57, 1158.69 438.60 C 1159.34 437.63, 1158.71 436.50, 1159.00 434.88 C 1159.29 433.26, 1159.46 432.56, 1160.14 430.48 C 1160.82 428.40, 1161.12 426.97, 1162.39 424.47 C 1163.65 421.97, 1164.75 420.40, 1166.46 417.98 C 1168.18 415.56, 1169.73 414.38, 1170.97 412.38 C 1172.21 410.38, 1172.38 409.30, 1172.67 407.99 C 1172.95 406.67, 1172.96 406.05, 1172.40 405.81 C 1171.85 405.57, 1171.31 405.53, 1169.89 406.79 C 1168.48 408.06, 1167.78 409.63, 1165.33 412.14 C 1162.88 414.65, 1161.19 416.52, 1157.65 419.36 C 1154.11 422.19, 1151.84 423.86, 1147.64 426.30 C 1143.45 428.75, 1141.08 429.93, 1136.68 431.59 C 1132.28 433.25, 1129.67 433.86, 1125.66 434.61 C 1121.64 435.37, 1119.48 435.29, 1116.59 435.36 C 1113.70 435.42, 1112.72 435.24, 1111.20 434.93 C 1109.68 434.63, 1109.22 434.71, 1109.00 433.85 C 1108.78 433.00, 1109.26 432.48, 1110.10 430.67 C 1110.93 428.86, 1111.49 427.32, 1113.18 424.80 C 1114.87 422.29, 1116.04 420.65, 1118.54 418.10 C 1121.03 415.56, 1122.79 414.16, 1125.64 412.09 C 1128.50 410.03, 1130.20 408.95, 1132.81 407.78 C 1135.41 406.61, 1136.44 406.46, 1138.68 406.25 C 1140.92 406.03, 1142.07 406.39, 1144.00 406.70 C 1145.93 407.01, 1146.73 407.33, 1148.32 407.79 C 1149.91 408.24, 1150.54 408.77, 1151.95 408.97 C 1153.37 409.18, 1154.27 409.41, 1155.40 408.79 C 1156.53 408.17, 1157.42 407.21, 1157.61 405.87" style="stroke: #eee; fill: #eee;"/><path d="M 1235.30,412.36 C 1236.08 411.23, 1236.28 410.12, 1235.82 408.74 C 1235.36 407.35, 1234.57 406.54, 1232.99 405.42 C 1231.42 404.30, 1230.26 403.59, 1227.93 403.12 C 1225.60 402.65, 1224.15 402.48, 1221.34 403.07 C 1218.52 403.66, 1217.09 404.42, 1213.85 406.06 C 1210.61 407.69, 1208.56 409.00, 1205.16 411.24 C 1201.76 413.48, 1199.95 414.82, 1196.85 417.25 C 1193.74 419.68, 1191.84 420.74, 1189.62 423.40 C 1187.40 426.06, 1186.40 427.71, 1185.74 430.55 C 1185.08 433.38, 1185.36 435.10, 1186.32 437.58 C 1187.28 440.05, 1188.23 441.25, 1190.54 442.93 C 1192.85 444.60, 1194.45 445.51, 1197.86 445.95 C 1201.27 446.39, 1203.45 445.84, 1207.58 445.13 C 1211.71 444.42, 1214.05 443.74, 1218.51 442.39 C 1222.97 441.04, 1225.45 440.27, 1229.88 438.40 C 1234.30 436.54, 1236.83 435.34, 1240.64 433.07 C 1244.45 430.80, 1246.38 429.66, 1248.93 427.04 C 1251.47 424.42, 1252.54 422.86, 1253.36 419.98 C 1254.18 417.10, 1253.96 415.30, 1253.04 412.63 C 1252.12 409.97, 1251.08 408.60, 1248.77 406.64 C 1246.46 404.69, 1244.64 403.83, 1241.49 402.88 C 1238.33 401.93, 1236.19 402.07, 1232.98 401.89 C 1229.77 401.71, 1228.01 401.67, 1225.43 401.97 C 1222.84 402.27, 1221.77 402.68, 1220.05 403.37 C 1218.34 404.05, 1217.45 404.47, 1216.85 405.41 C 1216.25 406.35, 1216.37 407.22, 1217.05 408.06 C 1217.73 408.91, 1218.58 409.04, 1220.24 409.63 C 1221.90 410.21, 1222.92 410.66, 1225.34 411.00 C 1227.76 411.34, 1229.56 411.11, 1232.34 411.34 C 1235.12 411.56, 1236.82 411.71, 1239.24 412.12 C 1241.65 412.52, 1242.81 412.77, 1244.40 413.36 C 1246.00 413.95, 1246.65 414.14, 1247.21 415.04 C 1247.76 415.95, 1247.83 416.45, 1247.19 417.90 C 1246.56 419.34, 1245.98 420.27, 1244.03 422.27 C 1242.08 424.28, 1240.71 425.77, 1237.43 427.92 C 1234.15 430.07, 1231.74 431.32, 1227.63 433.01 C 1223.52 434.70, 1221.07 435.40, 1216.89 436.39 C 1212.71 437.37, 1210.32 437.75, 1206.73 437.94 C 1203.14 438.14, 1201.43 437.67, 1198.93 437.37 C 1196.43 437.08, 1195.60 436.89, 1194.21 436.47 C 1192.82 436.04, 1192.35 436.00, 1191.97 435.24 C 1191.59 434.48, 1191.63 434.02, 1192.32 432.66 C 1193.00 431.31, 1193.61 430.40, 1195.41 428.45 C 1197.21 426.51, 1198.58 425.10, 1201.31 422.95 C 1204.05 420.80, 1205.86 419.49, 1209.08 417.70 C 1212.31 415.91, 1214.55 415.15, 1217.44 414.01 C 1220.34 412.88, 1221.71 412.60, 1223.56 412.03 C 1225.41 411.46, 1225.89 411.16, 1226.69 411.17 C 1227.50 411.18, 1227.14 411.57, 1227.57 412.08 C 1228.00 412.60, 1227.99 413.28, 1228.86 413.74 C 1229.73 414.20, 1230.62 414.65, 1231.90 414.38 C 1233.19 414.10, 1234.52 413.48, 1235.30 412.36" style="stroke: #eee; fill: #eee;"/></svg>